<?xml version="1.0" encoding="UTF-8" standalone="no"?>
<!-- Created with Inkscape (http://www.inkscape.org/) -->

<svg
   width="275.23178mm"
   height="35.26041mm"
   viewBox="0 0 275.23178 35.26041"
   version="1.1"
   id="svg1"
   inkscape:version="1.3.2 (091e20e, 2023-11-25, custom)"
   sodipodi:docname="dpn.svg"
   xmlns:inkscape="http://www.inkscape.org/namespaces/inkscape"
   xmlns:sodipodi="http://sodipodi.sourceforge.net/DTD/sodipodi-0.dtd"
   xmlns:xlink="http://www.w3.org/1999/xlink"
   xmlns="http://www.w3.org/2000/svg"
   xmlns:svg="http://www.w3.org/2000/svg">
  <sodipodi:namedview
     id="namedview1"
     pagecolor="#ffffff"
     bordercolor="#000000"
     borderopacity="0.25"
     inkscape:showpageshadow="2"
     inkscape:pageopacity="0.0"
     inkscape:pagecheckerboard="0"
     inkscape:deskcolor="#d1d1d1"
     inkscape:document-units="mm"
     inkscape:zoom="0.51717105"
     inkscape:cx="346.11373"
     inkscape:cy="-45.439512"
     inkscape:window-width="1920"
     inkscape:window-height="1017"
     inkscape:window-x="-8"
     inkscape:window-y="-8"
     inkscape:window-maximized="1"
     inkscape:current-layer="layer1" />
  <defs
     id="defs1">
    <linearGradient
       id="linearGradient16"
       inkscape:collect="always">
      <stop
         style="stop-color:#000000;stop-opacity:1;"
         offset="0"
         id="stop17" />
      <stop
         style="stop-color:#000000;stop-opacity:0;"
         offset="1"
         id="stop18" />
    </linearGradient>
    <radialGradient
       inkscape:collect="always"
       xlink:href="#linearGradient16"
       id="radialGradient18"
       cx="102.85498"
       cy="22.045805"
       fx="102.85498"
       fy="22.045805"
       r="82.242014"
       gradientTransform="matrix(1,0,0,0.15191262,8.4666669,19.755103)"
       gradientUnits="userSpaceOnUse" />
  </defs>
  <g
     inkscape:label="Layer 1"
     inkscape:groupmode="layer"
     id="layer1"
     transform="translate(28.992127,-4.5777297)">
    <g
       id="g21"
       transform="translate(12.170835)">
      <circle
         style="fill:#ff0000;fill-opacity:1;stroke:#ff0000;stroke-width:3;stroke-dasharray:none;stroke-opacity:1"
         id="path7"
         cx="192.18001"
         cy="23.385126"
         r="0.8636834" />
      <circle
         style="fill:#000000;stroke:#000000;stroke-width:2.6;stroke-dasharray:none;stroke-opacity:1"
         id="circle7"
         cx="202.76334"
         cy="23.385126"
         r="0.8636834" />
      <circle
         style="fill:#000000;stroke:#000000;stroke-width:2.2;stroke-dasharray:none;stroke-opacity:1"
         id="circle8"
         cx="213.34668"
         cy="23.385126"
         r="0.8636834" />
      <circle
         style="fill:#000000;stroke:#000000;stroke-width:1.8;stroke-dasharray:none;stroke-opacity:1"
         id="circle9"
         cx="223.93002"
         cy="23.385126"
         r="0.8636834" />
    </g>
    <g
       id="text9"
       style="font-size:25.4px;font-family:FuturaLightC;-inkscape-font-specification:FuturaLightC;stroke:url(#radialGradient18);stroke-width:0.4"
       aria-label="Daily Pulse News">
      <path
         style="font-family:FuturaBookC;-inkscape-font-specification:FuturaBookC"
         d="m 29.27964,29.327137 v -16.9418 h 3.4544 q 3.911599,0 6.248399,1.9812 2.8956,2.413 2.8956,6.5024 0,3.9624 -2.9718,6.5024 -1.2192,1.0414 -2.616199,1.4986 -1.397,0.4572 -3.5814,0.4572 z m 1.8796,-15.1638 v 13.3858 h 1.651 q 3.0226,0 4.851399,-1.524 2.286,-1.9304 2.286,-5.1562 0,-3.048 -1.9558,-4.8768 -1.955799,-1.8288 -5.181599,-1.8288 z"
         id="path27" />
      <path
         d="m 53.409639,20.767337 v -1.8034 h 1.016 v 10.3632 h -1.016 v -1.8542 q -1.397,2.1336 -4.0386,2.1336 -2.1082,0 -3.5814,-1.4986 -1.4732,-1.4986 -1.4732,-3.9624 0,-2.413 1.397,-3.9116 1.397,-1.4986 3.6576,-1.4986 2.5908,0 4.0386,2.032 z m -3.9878,-1.0668 q -1.651,0 -2.8448,1.1938 -1.1938,1.1684 -1.1938,3.175 0,1.8542 1.0922,3.2258 1.0922,1.3462 2.9718,1.3462 1.8542,0 2.921,-1.3208 1.0922,-1.3462 1.0922,-3.2512 0,-2.1082 -1.2446,-3.2258 -1.2446,-1.143 -2.794,-1.143 z m 8.661418,-0.7366 h 1.016 v 10.3632 h -1.016 z m 1.143,-2.7686 q -0.254,0.254 -0.635,0.254 -0.381,0 -0.6604,-0.254 -0.254,-0.2794 -0.254,-0.6858 0,-0.4064 0.254,-0.6604 0.2794,-0.2794 0.6604,-0.2794 0.381,0 0.635,0.2794 0.2794,0.254 0.2794,0.6604 0,0.4064 -0.2794,0.6858 z m 3.5306,-5.3848 h 1.016 v 18.5166 h -1.016 z m 5.435599,24.5872 2.54,-5.8928 -4.9276,-10.541 h 1.1684 l 4.3434,9.2202 3.7846,-9.2202 h 1.1684 l -6.9088,16.4338 z"
         id="path28" />
      <path
         style="font-family:FuturaBookC;-inkscape-font-specification:FuturaBookC"
         d="m 84.575439,12.385337 h 3.0734 q 2.8956,0 4.2672,1.1938 1.5494,1.3208 1.5494,3.6322 0,1.9812 -1.3462,3.3782 -1.3208,1.3716 -4.0132,1.3716 h -1.651 v 7.366 h -1.8796 z m 1.8796,1.778 v 6.0198 h 1.5494 q 1.6764,0 2.6162,-0.8128 0.9652,-0.8128 0.9652,-2.2606 0,-2.9464 -3.7338,-2.9464 z"
         id="path29" />
      <path
         style="font-size:22.5778px"
         d="m 95.599023,20.115394 h 0.903112 v 5.554139 q 0,1.603024 0.587023,2.302936 0.632178,0.745067 1.828801,0.745067 1.196621,0 1.828801,-0.745067 0.58702,-0.699912 0.58702,-2.302936 v -5.554139 h 0.90312 v 5.802495 q 0,1.625602 -0.69992,2.528714 -0.88053,1.12889 -2.619021,1.12889 -1.73849,0 -2.619024,-1.12889 -0.699912,-0.903112 -0.699912,-2.528714 z M 105.4881,12.86792 h 0.90311 v 16.459217 h -0.90311 z m 9.03112,8.534409 -0.76765,0.4064 q -0.45156,-1.038578 -1.60302,-1.038578 -0.72249,0 -1.15147,0.451556 -0.4064,0.451556 -0.4064,1.016001 0,0.451556 0.29351,0.790223 0.29351,0.316089 0.54187,0.428978 0.24835,0.112889 0.97084,0.4064 0.0677,0.02258 0.36125,0.135467 0.31609,0.112889 0.4064,0.158045 0.11289,0.04515 0.36124,0.180622 0.27094,0.112889 0.4064,0.225778 0.13547,0.09031 0.31609,0.248356 0.2032,0.158044 0.33867,0.338667 0.47413,0.587023 0.47413,1.490135 0,1.467557 -0.90311,2.212624 -0.88053,0.72249 -2.09973,0.72249 -1.17405,0 -2.03201,-0.654756 -0.85795,-0.654757 -1.15146,-1.783647 l 0.88053,-0.270933 q 0.22578,0.880534 0.85796,1.377246 0.65475,0.474133 1.44498,0.474133 0.88053,0 1.46755,-0.564445 0.58703,-0.587022 0.58703,-1.467557 0,-0.722489 -0.4064,-1.106312 -0.40641,-0.383823 -1.35467,-0.767645 -0.0903,-0.04516 -0.33867,-0.135467 -0.24836,-0.112889 -0.33867,-0.135467 -0.0677,-0.04515 -0.29351,-0.135467 -0.2032,-0.09031 -0.29351,-0.135466 -0.0677,-0.04516 -0.24836,-0.135467 -0.15804,-0.09031 -0.24835,-0.135467 -0.0677,-0.06773 -0.18062,-0.158045 -0.11289,-0.09031 -0.2032,-0.180622 -0.0903,-0.09031 -0.15805,-0.180622 -0.4064,-0.541868 -0.4064,-1.196624 0,-1.038579 0.69991,-1.693335 0.69991,-0.677334 1.76107,-0.677334 1.78365,0 2.41583,1.490135 z m 11.08572,3.431826 h -7.87965 q -0.0903,1.693335 1.016,2.799647 1.10631,1.083734 2.6416,1.083734 1.08374,0 1.91912,-0.564445 0.83538,-0.587022 1.28693,-1.53529 l 0.76765,0.451556 q -0.51929,0.993423 -1.51272,1.761068 -0.99342,0.745068 -2.52871,0.745068 -2.09974,0 -3.31894,-1.354668 -1.2192,-1.377246 -1.2192,-3.454404 0,-2.280358 1.30951,-3.567292 1.33209,-1.286935 3.1609,-1.286935 1.89653,0 3.16089,1.377246 1.26436,1.377246 1.19662,3.544715 z m -7.81192,-0.857957 h 6.86365 q -0.18062,-1.399823 -1.12889,-2.302935 -0.92569,-0.903112 -2.28035,-0.903112 -1.37725,0 -2.32552,0.925689 -0.94826,0.903112 -1.12889,2.280358 z"
         id="path30" />
      <path
         style="font-family:FuturaBookC;-inkscape-font-specification:FuturaBookC"
         d="m 136.62571,29.327137 h -1.8796 v -17.653 l 13.208,13.843 v -13.1318 h 1.8796 v 17.7038 l -13.208,-13.843 z"
         id="path31" />
      <path
         d="m 163.11793,24.272537 h -8.8646 q -0.1016,1.905 1.143,3.1496 1.2446,1.2192 2.9718,1.2192 1.2192,0 2.159,-0.635 0.9398,-0.6604 1.4478,-1.7272 l 0.8636,0.508 q -0.5842,1.1176 -1.7018,1.9812 -1.1176,0.8382 -2.8448,0.8382 -2.3622,0 -3.7338,-1.524 -1.3716,-1.5494 -1.3716,-3.8862 0,-2.5654 1.4732,-4.0132 1.4986,-1.4478 3.556,-1.4478 2.1336,0 3.556,1.5494 1.4224,1.5494 1.3462,3.9878 z m -8.7884,-0.9652 h 7.7216 q -0.2032,-1.5748 -1.27,-2.5908 -1.0414,-1.016 -2.5654,-1.016 -1.5494,0 -2.6162,1.0414 -1.0668,1.016 -1.27,2.5654 z m 10.16,-4.3434 h 1.1176 l 3.5814,8.5598 3.5814,-9.1948 3.5814,9.1948 3.683,-8.5598 h 1.1176 l -4.8006,10.9982 -3.5814,-9.1948 -3.5814,9.1948 z m 24.18081,1.4478 -0.8636,0.4572 q -0.508,-1.1684 -1.8034,-1.1684 -0.8128,0 -1.2954,0.508 -0.4572,0.508 -0.4572,1.143 0,0.508 0.3302,0.889 0.3302,0.3556 0.6096,0.4826 0.2794,0.127 1.0922,0.4572 0.0762,0.0254 0.4064,0.1524 0.3556,0.127 0.4572,0.1778 0.127,0.0508 0.4064,0.2032 0.3048,0.127 0.4572,0.254 0.1524,0.1016 0.3556,0.2794 0.2286,0.1778 0.381,0.381 0.5334,0.6604 0.5334,1.6764 0,1.651 -1.016,2.4892 -0.9906,0.8128 -2.3622,0.8128 -1.3208,0 -2.286,-0.7366 -0.9652,-0.7366 -1.2954,-2.0066 l 0.9906,-0.3048 q 0.254,0.9906 0.9652,1.5494 0.7366,0.5334 1.6256,0.5334 0.9906,0 1.651,-0.635 0.6604,-0.6604 0.6604,-1.651 0,-0.8128 -0.4572,-1.2446 -0.4572,-0.4318 -1.524,-0.8636 -0.1016,-0.0508 -0.381,-0.1524 -0.2794,-0.127 -0.381,-0.1524 -0.0762,-0.0508 -0.3302,-0.1524 -0.2286,-0.1016 -0.3302,-0.1524 -0.0762,-0.0508 -0.2794,-0.1524 -0.1778,-0.1016 -0.2794,-0.1524 -0.0762,-0.0762 -0.2032,-0.1778 -0.127,-0.1016 -0.2286,-0.2032 -0.1016,-0.1016 -0.1778,-0.2032 -0.4572,-0.6096 -0.4572,-1.3462 0,-1.1684 0.7874,-1.905 0.7874,-0.762 1.9812,-0.762 2.0066,0 2.7178,1.6764 z"
         id="path32" />
    </g>
    <g
       id="g27"
       transform="matrix(-1,0,0,1,203.84323,0)">
      <circle
         style="fill:#ff0000;stroke:#ff0000;stroke-width:3;stroke-dasharray:none;stroke-opacity:1;fill-opacity:1"
         id="circle24"
         cx="192.18001"
         cy="23.385126"
         r="0.8636834" />
      <circle
         style="fill:#000000;stroke:#000000;stroke-width:2.6;stroke-dasharray:none;stroke-opacity:1"
         id="circle25"
         cx="202.76334"
         cy="23.385126"
         r="0.8636834" />
      <circle
         style="fill:#000000;stroke:#000000;stroke-width:2.2;stroke-dasharray:none;stroke-opacity:1"
         id="circle26"
         cx="213.34668"
         cy="23.385126"
         r="0.8636834" />
      <circle
         style="fill:#000000;stroke:#000000;stroke-width:1.8;stroke-dasharray:none;stroke-opacity:1"
         id="circle27"
         cx="223.93002"
         cy="23.385126"
         r="0.8636834" />
    </g>
  </g>
</svg>
